<?xml version="1.0" encoding="utf-8"?>
<!-- Generator: Adobe Illustrator 28.1.0, SVG Export Plug-In . SVG Version: 6.00 Build 0)  -->
<svg version="1.1" id="Layer_1" xmlns="http://www.w3.org/2000/svg" xmlns:xlink="http://www.w3.org/1999/xlink" x="0px" y="0px"
	 viewBox="0 0 138 45" style="enable-background:new 0 0 138 45;" xml:space="preserve">
<style type="text/css">
	.st0{fill:#D32D1D;}
</style>
<path class="st0" d="M32.7,15c0,4.7,8.1,5,8.1,8.6c0,1.3-1.2,1.9-2.2,1.9c-4.8,0-7.5-6.7-8.3-14.2c-0.3-2.8-1.4-4.2-4.2-5.4
	C19.4,3.1,9.5,1.5,3.4,0.6C4.1,3.3,13.2,4.9,17,5.3c-0.3,0.5-0.8,1.4-1.1,1.9c-3.8-1-10.3-1.9-15-2.5c1.5,3,8.5,3.5,14.1,4.5
	l-0.6,1.6C10,10.1,5.5,9.6,1.3,9.6c1.6,2.4,8,2.9,12.6,3l-0.4,1.6c-2.7-0.1-5.7-0.1-8.6,0c1,1.7,3.7,2,6.2,2.2
	c2.7,0.3,7,0.7,8.5,3.2C23.5,25.5,26.4,30,32.4,30c1.8,0,3.3-0.3,4.1-0.6c-0.5,2-5.1,1-7.6,4.9c-1.5,2.3-1.5,4.9-4.5,5.6
	c-1.9,0.5-3.1,1.3-3.1,2.8c3.1-0.1,5.4-0.5,8.6-1.5C41.4,37.7,46,31.2,46,25.9c0-2.9-1.6-5.8-6.1-7.8l0.1-0.2
	c1.6,0.3,6.5,3.1,8.1,3.8c2,0.9,3.7,1.4,5.5,1.4c-4.9-3.3-9.3-5.5-13.4-6.8C38.8,15.8,38,15.5,38,15s0.8-0.5,0.8-0.9
	c0-0.3-0.5-0.4-0.5-1c0-0.4,0.3-0.8,0.8-0.8s0.8,0.3,0.9,0.8c0.1,0.3,0.2,0.7,0.7,0.9c4.1,2,9.8,6,13.4,8.9v0.7
	c0.4,0,0.7-0.4,0.7-0.7c0-0.2-0.1-0.5-0.3-0.6C52,20,44.7,13.5,39.2,11.2c-1.2-0.5-2.5-0.7-3.4-0.7v0.4h-1.4l0.3,0.5l-1.3,0.2
	l0.5,0.7l-1,0.4l0.5,0.8L32.7,14l0.4,0.7L32.7,15z"/>
<path class="st0" d="M88.6,28c-1.2,0-2.1,0.2-3,0.9l-0.8,1.4v-2h-2.5v11.9h2.5v-5.3c0-3.7,1.4-5.1,3.1-5.1c1.7,0,2.4,0.9,2.5,2.3
	c0,0.6,0,1.1,0,1.7v6.4h2.5v-6.7c0-1,0-1.5-0.1-2.1C92.6,29.3,91.2,28,88.6,28z"/>
<path class="st0" d="M104.1,29.9l-0.8-1.2c-0.6-0.5-1.8-0.7-2.8-0.7c-3.1,0-5.7,2.1-5.7,6.4c0,3.5,1.9,6.1,5.3,6.1
	c1.2,0,2.4-0.4,3.1-0.9l0.9-1.3v6.3h2.5V28.3h-2.5V29.9z M104.1,34.4c0,3.2-1.6,4.3-3.4,4.3c-2.1,0-3.3-1.9-3.3-4.5
	c0-2.9,1.5-4.4,3.4-4.4c1.6,0,3.3,1.1,3.3,4V34.4z"/>
<path class="st0" d="M117,33.9c0,3.4-1.3,4.8-3,4.8c-1.5,0-2.4-0.8-2.5-2.1c-0.1-0.6-0.1-1.3-0.1-1.6v-6.6H109v7.1
	c0,1,0,1.5,0.1,2.1c0.3,1.6,1.7,3,4.2,3c1.2,0,2.1-0.2,3-0.9l0.8-1.5v2h2.4V28.3H117V33.9z"/>
<path class="st0" d="M124.5,24.4H122v2.2h2.5V24.4z"/>
<path class="st0" d="M124.5,28.3H122v11.9h2.5V28.3z"/>
<path class="st0" d="M137.6,31.4c-0.2-2.1-1.7-3.4-4.2-3.4c-1.2,0-2.1,0.2-3,0.9l-0.8,1.4v-2h-2.5v11.9h2.5v-5.3
	c0-3.7,1.4-5.1,3.1-5.1s2.4,0.9,2.5,2.3c0,0.6,0,1.1,0,1.7v6.4h2.5v-6.7C137.6,32.5,137.6,32,137.6,31.4z"/>
<path class="st0" d="M63.4,31.1c-2.4-0.6-3.3-1.3-3.3-2.7c0-1.5,1.1-2.1,2.6-2.1s2.5,0.8,2.8,2.2c1,0.1,2.7,0.6,2.7,0.6
	c-0.3-2.7-2-4.7-5.4-4.7c-2.9,0-5.3,1.7-5.3,4.4s1.9,3.8,4.9,4.5c2.5,0.6,3.4,1.4,3.4,3c0,1.4-1.3,2.3-2.9,2.3c-1.8,0-3.2-1-3.6-2.9
	h-2.5c0.3,3.1,2.6,4.8,6.1,4.8c3,0,5.5-1.7,5.5-4.5C68.4,33.4,66.8,31.9,63.4,31.1z"/>
<path class="st0" d="M79.9,37.1v-4.2c0-0.6,0-1.2-0.1-1.7c-0.2-2-1.4-3.3-4.5-3.3c-2.1,0-3.7,0.9-4.4,2.4c0.7,0.5,1.2,0.9,1.7,1.3
	c0.3-0.6,0.6-1.1,1.3-1.5L74,30c0.3-0.2,0.8-0.3,1.3-0.3c1.4,0,2,0.7,2.1,1.6c0,0.4,0,1.6,0,1.6h-0.8c-4.5,0-6.6,1.4-6.6,4.1
	c0,1.7,1,2.8,2.4,3.2c0.4,0.1,0.9,0.2,1.4,0.2c1.1,0,2.1-0.2,2.9-0.8l0.6-1.3l0.2,1.7h2.4v-0.1C80,38.8,79.9,38,79.9,37.1z
	 M77.5,34.6v1.1c0,1.4-0.6,2.4-1.6,2.8c-0.3,0.1-0.7,0.2-1.1,0.2c-1.3,0-2.1-0.6-2.1-1.8c0-0.1,0-0.2,0-0.3c0.1-0.7,0.6-1.2,1.3-1.6
	C74.8,34.6,76,34.5,77.5,34.6z"/>
</svg>
