<?xml version="1.0" encoding="utf-8"?>
<!-- Generator: Adobe Illustrator 28.1.0, SVG Export Plug-In . SVG Version: 6.00 Build 0)  -->
<svg version="1.1" id="Layer_1" xmlns="http://www.w3.org/2000/svg" xmlns:xlink="http://www.w3.org/1999/xlink" x="0px" y="0px"
	 viewBox="0 0 62 48" style="enable-background:new 0 0 62 48;" xml:space="preserve">
<style type="text/css">
	.st0{fill:#D32D1D;}
</style>
<path class="st0" d="M36.4,16.1c0,5.2,9,5.6,9,9.6c0,1.5-1.3,2.1-2.5,2.1c-5.4,0-8.4-7.5-9.3-15.9c-0.3-3.1-1.6-4.7-4.7-6
	C21.5,2.8,10.5,1,3.7,0c0.8,3,10.9,4.8,15.2,5.2c-0.3,0.6-0.9,1.6-1.2,2.1C13.4,6.2,6.1,5.2,0.9,4.6c1.7,3.3,9.5,3.9,15.7,5L16,11.4
	C11,10.6,6,10.1,1.3,10.1c1.8,2.7,8.9,3.2,14.1,3.3L15,15.2c-3-0.1-6.4-0.1-9.6,0c1.1,1.9,4.1,2.2,6.9,2.5c3,0.3,7.8,0.8,9.5,3.6
	c4.1,6.5,7.4,11.6,14.1,11.6c2,0,3.7-0.3,4.6-0.7c-0.6,2.2-5.7,1.1-8.5,5.5c-1.7,2.6-1.7,5.5-5,6.2c-2.1,0.6-3.5,1.5-3.5,3.1
	c3.5-0.1,6-0.6,9.6-1.7c12.8-3.9,18-11.2,18-17.1c0-3.2-1.8-6.5-6.8-8.7l0.1-0.2c1.8,0.3,7.3,3.5,9,4.2c2.2,1,4.1,1.6,6.1,1.6
	c-5.5-3.7-10.4-6.1-15-7.6c-1.2-0.5-2.1-0.8-2.1-1.5c0-0.6,0.9-0.6,0.9-1c0-0.3-0.6-0.4-0.6-1.1c0-0.4,0.3-0.9,0.9-0.9
	s0.9,0.3,1,0.9c0.1,0.3,0.2,0.8,0.8,1c4.6,2.2,10.9,6.7,15,9.9v0.8c0.5,0,0.8-0.5,0.8-0.8c0-0.2-0.1-0.6-0.3-0.7
	c-2.8-2.6-10.9-9.8-17.1-12.4c-1.3-0.6-2.8-0.8-3.8-0.8v0.4h-1.6l0.3,0.6l-1.5,0.2l0.6,0.8l-1.1,0.4l0.6,0.9L36.5,15l0.3,0.7
	L36.4,16.1L36.4,16.1L36.4,16.1z"/>
</svg>
